<?xml version="1.0" standalone="no"?>
<svg viewBox="0 0 200 200" xmlns="http://www.w3.org/2000/svg">
  <path fill="#FF0066" d="M47.7,-76.2C60.4,-66.1,68.3,-50.5,73.9,-34.8C79.4,-19.1,82.5,-3.4,81.5,12.6C80.5,28.5,75.4,44.7,64.1,52.8C52.8,60.8,35.3,60.6,20.5,60.8C5.8,61,-6.2,61.4,-19.2,60C-32.2,58.6,-46.2,55.4,-56.3,47C-66.3,38.5,-72.5,24.9,-75.2,10.4C-77.9,-4.1,-77.2,-19.5,-70.3,-31.1C-63.5,-42.7,-50.4,-50.4,-37.7,-60.6C-24.9,-70.7,-12.5,-83.3,2.5,-87.2C17.5,-91.1,35,-86.4,47.7,-76.2Z" transform="translate(100 100)" />
</svg>
